<svg xmlns="http://www.w3.org/2000/svg" width="32" height="32" viewBox="0 0 32 32" fill="none">
    <path
        d="M10.5 10.9193H8.5V6.87933C8.5 6.58933 8.62 6.30933 8.82 6.10933L9.5 5.43933L10.18 6.10933C10.38 6.30933 10.5 6.58933 10.5 6.87933V10.9193Z"
        fill="url(#paint0_linear_63_2)" />
    <path
        d="M10.5 10.9193H8.5V6.87933C8.5 6.58933 8.62 6.30933 8.82 6.10933L9.5 5.43933L10.18 6.10933C10.38 6.30933 10.5 6.58933 10.5 6.87933V10.9193Z"
        fill="url(#paint1_radial_63_2)" />
    <path
        d="M17 10.9193H15V6.87933C15 6.58933 15.12 6.30933 15.32 6.10933L16 5.43933L16.68 6.10933C16.88 6.30933 17 6.58933 17 6.87933V10.9193Z"
        fill="url(#paint2_linear_63_2)" />
    <path
        d="M17 10.9193H15V6.87933C15 6.58933 15.12 6.30933 15.32 6.10933L16 5.43933L16.68 6.10933C16.88 6.30933 17 6.58933 17 6.87933V10.9193Z"
        fill="url(#paint3_radial_63_2)" />
    <path
        d="M23.5 11.0008H21.5V6.96075C21.5 6.67075 21.62 6.39075 21.82 6.19075L22.5 5.52075L23.18 6.19075C23.39 6.39075 23.5 6.67075 23.5 6.96075V11.0008Z"
        fill="url(#paint4_linear_63_2)" />
    <path
        d="M23.5 11.0008H21.5V6.96075C21.5 6.67075 21.62 6.39075 21.82 6.19075L22.5 5.52075L23.18 6.19075C23.39 6.39075 23.5 6.67075 23.5 6.96075V11.0008Z"
        fill="url(#paint5_radial_63_2)" />
    <path
        d="M26.9844 29.9976H4.92188C3.65625 29.9976 3 29.3125 3 28.0312V14.9976H29V28.0312C29 29.2812 28.4375 29.9976 26.9844 29.9976Z"
        fill="url(#paint6_linear_63_2)" />
    <path
        d="M26.9844 29.9976H4.92188C3.65625 29.9976 3 29.3125 3 28.0312V14.9976H29V28.0312C29 29.2812 28.4375 29.9976 26.9844 29.9976Z"
        fill="url(#paint7_radial_63_2)" />
    <path
        d="M26.9844 29.9976H4.92188C3.65625 29.9976 3 29.3125 3 28.0312V14.9976H29V28.0312C29 29.2812 28.4375 29.9976 26.9844 29.9976Z"
        fill="url(#paint8_linear_63_2)" />
    <path d="M29 21.9855H3V23.9855H29V21.9855Z" fill="url(#paint9_linear_63_2)" />
    <g filter="url(#filter0_f_63_2)">
        <path
            d="M3.72903 19.0817C4.4315 19.0817 4.76681 18.8302 5.23994 18.4297C5.58993 18.1334 6.07501 17.6885 6.46674 18C7.91025 19.13 10.1223 19.5597 11.5659 18.4297C12.1138 18.0007 12.21 17.9042 12.7355 18.3155C13.4602 18.8828 14.4635 19.2564 15.3332 19.2541C16.912 19.2541 17.6057 18.8709 18.3245 18.3082C18.84 17.9047 19.1292 17.9068 19.6419 18.3082C21.191 19.5208 23.4474 19.26 24.6351 18.3155C25.3843 17.7197 26.6029 19.0312 27.4351 19.0312C28.0106 19.0312 28.8662 18.8785 28.8662 17.7954C23.1511 13.0515 8.24629 13.4669 3.41793 17.375C2.6658 17.9838 3.02656 19.0817 3.72903 19.0817Z"
            fill="url(#paint10_linear_63_2)" />
    </g>
    <path
        d="M2 12.2969V17.5576C2 18.5234 3.01562 18.8359 3.56 18.8359C4.26562 18.8359 4.59506 18.4781 5.07031 18.0776C5.42188 17.7812 6.26276 17.766 6.65625 18.0776C8.10625 19.2076 10.1369 19.2076 11.5869 18.0776C12.1373 17.6486 13.0122 17.6662 13.54 18.0776C14.268 18.6449 15.1421 19.0258 16.0157 19.0234C16.8821 19.0211 17.748 18.6402 18.47 18.0776C18.9878 17.674 19.8756 17.6689 20.3906 18.0703C21.9466 19.2829 24.1663 19.022 25.3594 18.0776C26.1119 17.4818 27.4688 18.8438 28.3047 18.8438C28.8828 18.8438 30.01 18.6406 30.01 17.5576V16.9976V12.2969C30.01 9.5625 28.0625 9.01562 26 9.01562H6.39062C3.21875 9.01562 2 10.125 2 12.2969Z"
        fill="#EDC8AE" />
    <path
        d="M2 12.2969V17.5576C2 18.5234 3.01562 18.8359 3.56 18.8359C4.26562 18.8359 4.59506 18.4781 5.07031 18.0776C5.42188 17.7812 6.26276 17.766 6.65625 18.0776C8.10625 19.2076 10.1369 19.2076 11.5869 18.0776C12.1373 17.6486 13.0122 17.6662 13.54 18.0776C14.268 18.6449 15.1421 19.0258 16.0157 19.0234C16.8821 19.0211 17.748 18.6402 18.47 18.0776C18.9878 17.674 19.8756 17.6689 20.3906 18.0703C21.9466 19.2829 24.1663 19.022 25.3594 18.0776C26.1119 17.4818 27.4688 18.8438 28.3047 18.8438C28.8828 18.8438 30.01 18.6406 30.01 17.5576V16.9976V12.2969C30.01 9.5625 28.0625 9.01562 26 9.01562H6.39062C3.21875 9.01562 2 10.125 2 12.2969Z"
        fill="url(#paint11_radial_63_2)" />
    <path
        d="M2 12.2969V17.5576C2 18.5234 3.01562 18.8359 3.56 18.8359C4.26562 18.8359 4.59506 18.4781 5.07031 18.0776C5.42188 17.7812 6.26276 17.766 6.65625 18.0776C8.10625 19.2076 10.1369 19.2076 11.5869 18.0776C12.1373 17.6486 13.0122 17.6662 13.54 18.0776C14.268 18.6449 15.1421 19.0258 16.0157 19.0234C16.8821 19.0211 17.748 18.6402 18.47 18.0776C18.9878 17.674 19.8756 17.6689 20.3906 18.0703C21.9466 19.2829 24.1663 19.022 25.3594 18.0776C26.1119 17.4818 27.4688 18.8438 28.3047 18.8438C28.8828 18.8438 30.01 18.6406 30.01 17.5576V16.9976V12.2969C30.01 9.5625 28.0625 9.01562 26 9.01562H6.39062C3.21875 9.01562 2 10.125 2 12.2969Z"
        fill="url(#paint12_radial_63_2)" />
    <path
        d="M2 12.2969V17.5576C2 18.5234 3.01562 18.8359 3.56 18.8359C4.26562 18.8359 4.59506 18.4781 5.07031 18.0776C5.42188 17.7812 6.26276 17.766 6.65625 18.0776C8.10625 19.2076 10.1369 19.2076 11.5869 18.0776C12.1373 17.6486 13.0122 17.6662 13.54 18.0776C14.268 18.6449 15.1421 19.0258 16.0157 19.0234C16.8821 19.0211 17.748 18.6402 18.47 18.0776C18.9878 17.674 19.8756 17.6689 20.3906 18.0703C21.9466 19.2829 24.1663 19.022 25.3594 18.0776C26.1119 17.4818 27.4688 18.8438 28.3047 18.8438C28.8828 18.8438 30.01 18.6406 30.01 17.5576V16.9976V12.2969C30.01 9.5625 28.0625 9.01562 26 9.01562H6.39062C3.21875 9.01562 2 10.125 2 12.2969Z"
        fill="url(#paint13_linear_63_2)" />
    <path
        d="M2 12.2969V17.5576C2 18.5234 3.01562 18.8359 3.56 18.8359C4.26562 18.8359 4.59506 18.4781 5.07031 18.0776C5.42188 17.7812 6.26276 17.766 6.65625 18.0776C8.10625 19.2076 10.1369 19.2076 11.5869 18.0776C12.1373 17.6486 13.0122 17.6662 13.54 18.0776C14.268 18.6449 15.1421 19.0258 16.0157 19.0234C16.8821 19.0211 17.748 18.6402 18.47 18.0776C18.9878 17.674 19.8756 17.6689 20.3906 18.0703C21.9466 19.2829 24.1663 19.022 25.3594 18.0776C26.1119 17.4818 27.4688 18.8438 28.3047 18.8438C28.8828 18.8438 30.01 18.6406 30.01 17.5576V16.9976V12.2969C30.01 9.5625 28.0625 9.01562 26 9.01562H6.39062C3.21875 9.01562 2 10.125 2 12.2969Z"
        fill="url(#paint14_linear_63_2)" />
    <path
        d="M2 12.2969V17.5576C2 18.5234 3.01562 18.8359 3.56 18.8359C4.26562 18.8359 4.59506 18.4781 5.07031 18.0776C5.42188 17.7812 6.26276 17.766 6.65625 18.0776C8.10625 19.2076 10.1369 19.2076 11.5869 18.0776C12.1373 17.6486 13.0122 17.6662 13.54 18.0776C14.268 18.6449 15.1421 19.0258 16.0157 19.0234C16.8821 19.0211 17.748 18.6402 18.47 18.0776C18.9878 17.674 19.8756 17.6689 20.3906 18.0703C21.9466 19.2829 24.1663 19.022 25.3594 18.0776C26.1119 17.4818 27.4688 18.8438 28.3047 18.8438C28.8828 18.8438 30.01 18.6406 30.01 17.5576V16.9976V12.2969C30.01 9.5625 28.0625 9.01562 26 9.01562H6.39062C3.21875 9.01562 2 10.125 2 12.2969Z"
        fill="url(#paint15_linear_63_2)" />
    <path
        d="M2 12.2969V17.5576C2 18.5234 3.01562 18.8359 3.56 18.8359C4.26562 18.8359 4.59506 18.4781 5.07031 18.0776C5.42188 17.7812 6.26276 17.766 6.65625 18.0776C8.10625 19.2076 10.1369 19.2076 11.5869 18.0776C12.1373 17.6486 13.0122 17.6662 13.54 18.0776C14.268 18.6449 15.1421 19.0258 16.0157 19.0234C16.8821 19.0211 17.748 18.6402 18.47 18.0776C18.9878 17.674 19.8756 17.6689 20.3906 18.0703C21.9466 19.2829 24.1663 19.022 25.3594 18.0776C26.1119 17.4818 27.4688 18.8438 28.3047 18.8438C28.8828 18.8438 30.01 18.6406 30.01 17.5576V16.9976V12.2969C30.01 9.5625 28.0625 9.01562 26 9.01562H6.39062C3.21875 9.01562 2 10.125 2 12.2969Z"
        fill="url(#paint16_radial_63_2)" />
    <path
        d="M2 12.2969V17.5576C2 18.5234 3.01562 18.8359 3.56 18.8359C4.26562 18.8359 4.59506 18.4781 5.07031 18.0776C5.42188 17.7812 6.26276 17.766 6.65625 18.0776C8.10625 19.2076 10.1369 19.2076 11.5869 18.0776C12.1373 17.6486 13.0122 17.6662 13.54 18.0776C14.268 18.6449 15.1421 19.0258 16.0157 19.0234C16.8821 19.0211 17.748 18.6402 18.47 18.0776C18.9878 17.674 19.8756 17.6689 20.3906 18.0703C21.9466 19.2829 24.1663 19.022 25.3594 18.0776C26.1119 17.4818 27.4688 18.8438 28.3047 18.8438C28.8828 18.8438 30.01 18.6406 30.01 17.5576V16.9976V12.2969C30.01 9.5625 28.0625 9.01562 26 9.01562H6.39062C3.21875 9.01562 2 10.125 2 12.2969Z"
        fill="url(#paint17_radial_63_2)" />
    <path
        d="M2 12.2969V17.5576C2 18.5234 3.01562 18.8359 3.56 18.8359C4.26562 18.8359 4.59506 18.4781 5.07031 18.0776C5.42188 17.7812 6.26276 17.766 6.65625 18.0776C8.10625 19.2076 10.1369 19.2076 11.5869 18.0776C12.1373 17.6486 13.0122 17.6662 13.54 18.0776C14.268 18.6449 15.1421 19.0258 16.0157 19.0234C16.8821 19.0211 17.748 18.6402 18.47 18.0776C18.9878 17.674 19.8756 17.6689 20.3906 18.0703C21.9466 19.2829 24.1663 19.022 25.3594 18.0776C26.1119 17.4818 27.4688 18.8438 28.3047 18.8438C28.8828 18.8438 30.01 18.6406 30.01 17.5576V16.9976V12.2969C30.01 9.5625 28.0625 9.01562 26 9.01562H6.39062C3.21875 9.01562 2 10.125 2 12.2969Z"
        fill="url(#paint18_linear_63_2)" />
    <g filter="url(#filter1_f_63_2)">
        <path
            d="M2.40625 17.2618C2.40625 18.1394 3.06718 18.4234 3.59375 18.4234C4.27629 18.4234 4.54029 17.9577 5 17.5938C5.34006 17.3245 6.44751 17.5919 6.82812 17.875C7.46029 18.3378 8.28937 18.7356 9.04688 18.7813C9.97002 18.8368 11.1202 18.1578 11.8906 17.5938C12.423 17.204 13.0582 17.22 13.5688 17.5938C14.2729 18.1093 15.1238 18.8928 15.9688 18.8906C16.8068 18.8886 17.9422 18.2456 18.6406 17.7343C19.1415 17.3676 20.1737 17.363 20.6719 17.7277C22.177 18.8296 24.1897 18.7801 25.3438 17.9219C26.5676 17.0117 27.8164 18.5156 28.625 18.5156C29.1842 18.5156 29.7656 18.4998 29.7656 17.5156V16.75C29.3906 15.7627 2.40625 15.5938 2.40625 17.2618Z"
            fill="#EDC8AE" />
        <path
            d="M2.40625 17.2618C2.40625 18.1394 3.06718 18.4234 3.59375 18.4234C4.27629 18.4234 4.54029 17.9577 5 17.5938C5.34006 17.3245 6.44751 17.5919 6.82812 17.875C7.46029 18.3378 8.28937 18.7356 9.04688 18.7813C9.97002 18.8368 11.1202 18.1578 11.8906 17.5938C12.423 17.204 13.0582 17.22 13.5688 17.5938C14.2729 18.1093 15.1238 18.8928 15.9688 18.8906C16.8068 18.8886 17.9422 18.2456 18.6406 17.7343C19.1415 17.3676 20.1737 17.363 20.6719 17.7277C22.177 18.8296 24.1897 18.7801 25.3438 17.9219C26.5676 17.0117 27.8164 18.5156 28.625 18.5156C29.1842 18.5156 29.7656 18.4998 29.7656 17.5156V16.75C29.3906 15.7627 2.40625 15.5938 2.40625 17.2618Z"
            fill="url(#paint19_radial_63_2)" />
        <path
            d="M2.40625 17.2618C2.40625 18.1394 3.06718 18.4234 3.59375 18.4234C4.27629 18.4234 4.54029 17.9577 5 17.5938C5.34006 17.3245 6.44751 17.5919 6.82812 17.875C7.46029 18.3378 8.28937 18.7356 9.04688 18.7813C9.97002 18.8368 11.1202 18.1578 11.8906 17.5938C12.423 17.204 13.0582 17.22 13.5688 17.5938C14.2729 18.1093 15.1238 18.8928 15.9688 18.8906C16.8068 18.8886 17.9422 18.2456 18.6406 17.7343C19.1415 17.3676 20.1737 17.363 20.6719 17.7277C22.177 18.8296 24.1897 18.7801 25.3438 17.9219C26.5676 17.0117 27.8164 18.5156 28.625 18.5156C29.1842 18.5156 29.7656 18.4998 29.7656 17.5156V16.75C29.3906 15.7627 2.40625 15.5938 2.40625 17.2618Z"
            fill="url(#paint20_radial_63_2)" />
        <path
            d="M2.40625 17.2618C2.40625 18.1394 3.06718 18.4234 3.59375 18.4234C4.27629 18.4234 4.54029 17.9577 5 17.5938C5.34006 17.3245 6.44751 17.5919 6.82812 17.875C7.46029 18.3378 8.28937 18.7356 9.04688 18.7813C9.97002 18.8368 11.1202 18.1578 11.8906 17.5938C12.423 17.204 13.0582 17.22 13.5688 17.5938C14.2729 18.1093 15.1238 18.8928 15.9688 18.8906C16.8068 18.8886 17.9422 18.2456 18.6406 17.7343C19.1415 17.3676 20.1737 17.363 20.6719 17.7277C22.177 18.8296 24.1897 18.7801 25.3438 17.9219C26.5676 17.0117 27.8164 18.5156 28.625 18.5156C29.1842 18.5156 29.7656 18.4998 29.7656 17.5156V16.75C29.3906 15.7627 2.40625 15.5938 2.40625 17.2618Z"
            fill="url(#paint21_linear_63_2)" />
        <path
            d="M2.40625 17.2618C2.40625 18.1394 3.06718 18.4234 3.59375 18.4234C4.27629 18.4234 4.54029 17.9577 5 17.5938C5.34006 17.3245 6.44751 17.5919 6.82812 17.875C7.46029 18.3378 8.28937 18.7356 9.04688 18.7813C9.97002 18.8368 11.1202 18.1578 11.8906 17.5938C12.423 17.204 13.0582 17.22 13.5688 17.5938C14.2729 18.1093 15.1238 18.8928 15.9688 18.8906C16.8068 18.8886 17.9422 18.2456 18.6406 17.7343C19.1415 17.3676 20.1737 17.363 20.6719 17.7277C22.177 18.8296 24.1897 18.7801 25.3438 17.9219C26.5676 17.0117 27.8164 18.5156 28.625 18.5156C29.1842 18.5156 29.7656 18.4998 29.7656 17.5156V16.75C29.3906 15.7627 2.40625 15.5938 2.40625 17.2618Z"
            fill="url(#paint22_linear_63_2)" />
        <path
            d="M2.40625 17.2618C2.40625 18.1394 3.06718 18.4234 3.59375 18.4234C4.27629 18.4234 4.54029 17.9577 5 17.5938C5.34006 17.3245 6.44751 17.5919 6.82812 17.875C7.46029 18.3378 8.28937 18.7356 9.04688 18.7813C9.97002 18.8368 11.1202 18.1578 11.8906 17.5938C12.423 17.204 13.0582 17.22 13.5688 17.5938C14.2729 18.1093 15.1238 18.8928 15.9688 18.8906C16.8068 18.8886 17.9422 18.2456 18.6406 17.7343C19.1415 17.3676 20.1737 17.363 20.6719 17.7277C22.177 18.8296 24.1897 18.7801 25.3438 17.9219C26.5676 17.0117 27.8164 18.5156 28.625 18.5156C29.1842 18.5156 29.7656 18.4998 29.7656 17.5156V16.75C29.3906 15.7627 2.40625 15.5938 2.40625 17.2618Z"
            fill="url(#paint23_linear_63_2)" />
        <path
            d="M2.40625 17.2618C2.40625 18.1394 3.06718 18.4234 3.59375 18.4234C4.27629 18.4234 4.54029 17.9577 5 17.5938C5.34006 17.3245 6.44751 17.5919 6.82812 17.875C7.46029 18.3378 8.28937 18.7356 9.04688 18.7813C9.97002 18.8368 11.1202 18.1578 11.8906 17.5938C12.423 17.204 13.0582 17.22 13.5688 17.5938C14.2729 18.1093 15.1238 18.8928 15.9688 18.8906C16.8068 18.8886 17.9422 18.2456 18.6406 17.7343C19.1415 17.3676 20.1737 17.363 20.6719 17.7277C22.177 18.8296 24.1897 18.7801 25.3438 17.9219C26.5676 17.0117 27.8164 18.5156 28.625 18.5156C29.1842 18.5156 29.7656 18.4998 29.7656 17.5156V16.75C29.3906 15.7627 2.40625 15.5938 2.40625 17.2618Z"
            fill="url(#paint24_radial_63_2)" />
        <path
            d="M2.40625 17.2618C2.40625 18.1394 3.06718 18.4234 3.59375 18.4234C4.27629 18.4234 4.54029 17.9577 5 17.5938C5.34006 17.3245 6.44751 17.5919 6.82812 17.875C7.46029 18.3378 8.28937 18.7356 9.04688 18.7813C9.97002 18.8368 11.1202 18.1578 11.8906 17.5938C12.423 17.204 13.0582 17.22 13.5688 17.5938C14.2729 18.1093 15.1238 18.8928 15.9688 18.8906C16.8068 18.8886 17.9422 18.2456 18.6406 17.7343C19.1415 17.3676 20.1737 17.363 20.6719 17.7277C22.177 18.8296 24.1897 18.7801 25.3438 17.9219C26.5676 17.0117 27.8164 18.5156 28.625 18.5156C29.1842 18.5156 29.7656 18.4998 29.7656 17.5156V16.75C29.3906 15.7627 2.40625 15.5938 2.40625 17.2618Z"
            fill="url(#paint25_radial_63_2)" />
    </g>
    <g filter="url(#filter2_f_63_2)">
        <path
            d="M21.3078 15.9407C21.1078 16.1407 20.7978 16.1407 20.5978 15.9407L19.8578 15.2007C19.6578 15.0007 19.6578 14.6907 19.8578 14.4907C20.0578 14.2907 20.3678 14.2907 20.5678 14.4907L21.3078 15.2307C21.5078 15.4307 21.5078 15.7507 21.3078 15.9407Z"
            fill="url(#paint26_linear_63_2)" />
        <path
            d="M21.3078 15.9407C21.1078 16.1407 20.7978 16.1407 20.5978 15.9407L19.8578 15.2007C19.6578 15.0007 19.6578 14.6907 19.8578 14.4907C20.0578 14.2907 20.3678 14.2907 20.5678 14.4907L21.3078 15.2307C21.5078 15.4307 21.5078 15.7507 21.3078 15.9407Z"
            fill="#E6A9AF" />
    </g>
    <path
        d="M21.4562 15.8574C21.2562 16.0574 20.9462 16.0574 20.7462 15.8574L20.0062 15.1174C19.8062 14.9174 19.8062 14.6074 20.0062 14.4074C20.2062 14.2074 20.5162 14.2074 20.7162 14.4074L21.4562 15.1474C21.6562 15.3474 21.6562 15.6674 21.4562 15.8574Z"
        fill="url(#paint27_linear_63_2)" />
    <path
        d="M21.4562 15.8574C21.2562 16.0574 20.9462 16.0574 20.7462 15.8574L20.0062 15.1174C19.8062 14.9174 19.8062 14.6074 20.0062 14.4074C20.2062 14.2074 20.5162 14.2074 20.7162 14.4074L21.4562 15.1474C21.6562 15.3474 21.6562 15.6674 21.4562 15.8574Z"
        fill="url(#paint28_radial_63_2)" />
    <g filter="url(#filter3_f_63_2)">
        <path
            d="M11.7444 14.6001C11.5444 14.4001 11.2344 14.4001 11.0344 14.6001L10.2944 15.3401C10.0944 15.5401 10.0944 15.8501 10.2944 16.0501C10.4944 16.2501 10.8044 16.2501 11.0044 16.0501L11.7444 15.3101C11.9344 15.1101 11.9344 14.8001 11.7444 14.6001Z"
            fill="url(#paint29_linear_63_2)" />
        <path
            d="M11.7444 14.6001C11.5444 14.4001 11.2344 14.4001 11.0344 14.6001L10.2944 15.3401C10.0944 15.5401 10.0944 15.8501 10.2944 16.0501C10.4944 16.2501 10.8044 16.2501 11.0044 16.0501L11.7444 15.3101C11.9344 15.1101 11.9344 14.8001 11.7444 14.6001Z"
            fill="url(#paint30_radial_63_2)" />
        <path
            d="M11.7444 14.6001C11.5444 14.4001 11.2344 14.4001 11.0344 14.6001L10.2944 15.3401C10.0944 15.5401 10.0944 15.8501 10.2944 16.0501C10.4944 16.2501 10.8044 16.2501 11.0044 16.0501L11.7444 15.3101C11.9344 15.1101 11.9344 14.8001 11.7444 14.6001Z"
            fill="#CCA39A" />
    </g>
    <path
        d="M11.9938 14.4C11.7938 14.2 11.4838 14.2 11.2838 14.4L10.5438 15.14C10.3438 15.34 10.3438 15.65 10.5438 15.85C10.7438 16.05 11.0538 16.05 11.2538 15.85L11.9938 15.11C12.1838 14.91 12.1838 14.6 11.9938 14.4Z"
        fill="url(#paint31_linear_63_2)" />
    <path
        d="M11.9938 14.4C11.7938 14.2 11.4838 14.2 11.2838 14.4L10.5438 15.14C10.3438 15.34 10.3438 15.65 10.5438 15.85C10.7438 16.05 11.0538 16.05 11.2538 15.85L11.9938 15.11C12.1838 14.91 12.1838 14.6 11.9938 14.4Z"
        fill="url(#paint32_radial_63_2)" />
    <path
        d="M11.9938 14.4C11.7938 14.2 11.4838 14.2 11.2838 14.4L10.5438 15.14C10.3438 15.34 10.3438 15.65 10.5438 15.85C10.7438 16.05 11.0538 16.05 11.2538 15.85L11.9938 15.11C12.1838 14.91 12.1838 14.6 11.9938 14.4Z"
        fill="url(#paint33_radial_63_2)" />
    <g filter="url(#filter4_f_63_2)">
        <path
            d="M7.35341 12.9564C7.12267 13.12 6.81707 13.0679 6.65348 12.8372L6.04821 11.9835C5.88462 11.7527 5.93666 11.4471 6.1674 11.2835C6.39813 11.1199 6.70374 11.172 6.86732 11.4027L7.4726 12.2564C7.628 12.4756 7.57428 12.7911 7.35341 12.9564Z"
            fill="url(#paint34_linear_63_2)" />
        <path
            d="M7.35341 12.9564C7.12267 13.12 6.81707 13.0679 6.65348 12.8372L6.04821 11.9835C5.88462 11.7527 5.93666 11.4471 6.1674 11.2835C6.39813 11.1199 6.70374 11.172 6.86732 11.4027L7.4726 12.2564C7.628 12.4756 7.57428 12.7911 7.35341 12.9564Z"
            fill="#CEA691" />
    </g>
    <path
        d="M7.64716 12.8345C7.41643 12.9981 7.11083 12.9461 6.94724 12.7153L6.34197 11.8616C6.17838 11.6309 6.23042 11.3253 6.46116 11.1617C6.69189 10.9981 6.99749 11.0502 7.16108 11.2809L7.76635 12.1346C7.92176 12.3538 7.86804 12.6693 7.64716 12.8345Z"
        fill="url(#paint35_linear_63_2)" />
    <path
        d="M7.64716 12.8345C7.41643 12.9981 7.11083 12.9461 6.94724 12.7153L6.34197 11.8616C6.17838 11.6309 6.23042 11.3253 6.46116 11.1617C6.69189 10.9981 6.99749 11.0502 7.16108 11.2809L7.76635 12.1346C7.92176 12.3538 7.86804 12.6693 7.64716 12.8345Z"
        fill="url(#paint36_radial_63_2)" />
    <g filter="url(#filter5_f_63_2)">
        <path
            d="M25.4284 11.3133C25.2005 11.1457 24.8941 11.1924 24.7264 11.4202L24.1063 12.2632C23.9387 12.491 23.9853 12.7975 24.2132 12.9651C24.441 13.1327 24.7475 13.086 24.9151 12.8582L25.5352 12.0152C25.7028 11.7874 25.6547 11.471 25.4284 11.3133Z"
            fill="url(#paint37_linear_63_2)" />
        <path
            d="M25.4284 11.3133C25.2005 11.1457 24.8941 11.1924 24.7264 11.4202L24.1063 12.2632C23.9387 12.491 23.9853 12.7975 24.2132 12.9651C24.441 13.1327 24.7475 13.086 24.9151 12.8582L25.5352 12.0152C25.7028 11.7874 25.6547 11.471 25.4284 11.3133Z"
            fill="#F8CCAD" />
    </g>
    <path
        d="M25.5426 11.1716C25.3148 11.004 25.0083 11.0506 24.8407 11.2785L24.2205 12.1214C24.0529 12.3493 24.0996 12.6557 24.3274 12.8233C24.5552 12.991 24.8617 12.9443 25.0293 12.7165L25.6495 11.8735C25.8171 11.6457 25.7689 11.3293 25.5426 11.1716Z"
        fill="url(#paint38_linear_63_2)" />
    <path
        d="M25.5426 11.1716C25.3148 11.004 25.0083 11.0506 24.8407 11.2785L24.2205 12.1214C24.0529 12.3493 24.0996 12.6557 24.3274 12.8233C24.5552 12.991 24.8617 12.9443 25.0293 12.7165L25.6495 11.8735C25.8171 11.6457 25.7689 11.3293 25.5426 11.1716Z"
        fill="url(#paint39_radial_63_2)" />
    <g filter="url(#filter6_f_63_2)">
        <path
            d="M15.15 11.3943C14.95 11.5943 14.95 11.9043 15.15 12.1043L15.89 12.8443C16.09 13.0443 16.4 13.0443 16.6 12.8443C16.8 12.6443 16.8 12.3343 16.6 12.1343L15.86 11.3943C15.66 11.1943 15.34 11.1943 15.15 11.3943Z"
            fill="#AD8994" />
    </g>
    <path
        d="M15.28 11.2724C15.08 11.4724 15.08 11.7824 15.28 11.9824L16.02 12.7224C16.22 12.9224 16.53 12.9224 16.73 12.7224C16.93 12.5224 16.93 12.2124 16.73 12.0124L15.99 11.2724C15.79 11.0724 15.47 11.0724 15.28 11.2724Z"
        fill="url(#paint40_linear_63_2)" />
    <defs>
        <filter id="filter0_f_63_2" x="2.75" y="14.0907" width="26.3662" height="5.41341"
            filterUnits="userSpaceOnUse" color-interpolation-filters="sRGB">
            <feFlood flood-opacity="0" result="BackgroundImageFix" />
            <feBlend mode="normal" in="SourceGraphic" in2="BackgroundImageFix" result="shape" />
            <feGaussianBlur stdDeviation="0.125" result="effect1_foregroundBlur_63_2" />
        </filter>
        <filter id="filter1_f_63_2" x="1.40625" y="15.006" width="29.3594" height="4.88463"
            filterUnits="userSpaceOnUse" color-interpolation-filters="sRGB">
            <feFlood flood-opacity="0" result="BackgroundImageFix" />
            <feBlend mode="normal" in="SourceGraphic" in2="BackgroundImageFix" result="shape" />
            <feGaussianBlur stdDeviation="0.5" result="effect1_foregroundBlur_63_2" />
        </filter>
        <filter id="filter2_f_63_2" x="19.4578" y="14.0907" width="2.25" height="2.25"
            filterUnits="userSpaceOnUse" color-interpolation-filters="sRGB">
            <feFlood flood-opacity="0" result="BackgroundImageFix" />
            <feBlend mode="normal" in="SourceGraphic" in2="BackgroundImageFix" result="shape" />
            <feGaussianBlur stdDeviation="0.125" result="effect1_foregroundBlur_63_2" />
        </filter>
        <filter id="filter3_f_63_2" x="9.89441" y="14.2001" width="2.24249" height="2.25"
            filterUnits="userSpaceOnUse" color-interpolation-filters="sRGB">
            <feFlood flood-opacity="0" result="BackgroundImageFix" />
            <feBlend mode="normal" in="SourceGraphic" in2="BackgroundImageFix" result="shape" />
            <feGaussianBlur stdDeviation="0.125" result="effect1_foregroundBlur_63_2" />
        </filter>
        <filter id="filter4_f_63_2" x="5.703" y="10.9383" width="2.10846" height="2.36328"
            filterUnits="userSpaceOnUse" color-interpolation-filters="sRGB">
            <feFlood flood-opacity="0" result="BackgroundImageFix" />
            <feBlend mode="normal" in="SourceGraphic" in2="BackgroundImageFix" result="shape" />
            <feGaussianBlur stdDeviation="0.125" result="effect1_foregroundBlur_63_2" />
        </filter>
        <filter id="filter5_f_63_2" x="23.7559" y="10.9629" width="2.12933" height="2.35258"
            filterUnits="userSpaceOnUse" color-interpolation-filters="sRGB">
            <feFlood flood-opacity="0" result="BackgroundImageFix" />
            <feBlend mode="normal" in="SourceGraphic" in2="BackgroundImageFix" result="shape" />
            <feGaussianBlur stdDeviation="0.125" result="effect1_foregroundBlur_63_2" />
        </filter>
        <filter id="filter6_f_63_2" x="14.75" y="10.9943" width="2.25" height="2.25"
            filterUnits="userSpaceOnUse" color-interpolation-filters="sRGB">
            <feFlood flood-opacity="0" result="BackgroundImageFix" />
            <feBlend mode="normal" in="SourceGraphic" in2="BackgroundImageFix" result="shape" />
            <feGaussianBlur stdDeviation="0.125" result="effect1_foregroundBlur_63_2" />
        </filter>
        <linearGradient id="paint0_linear_63_2" x1="8.5" y1="7.875" x2="10.5" y2="7.875"
            gradientUnits="userSpaceOnUse">
            <stop stop-color="#3F92A6" />
            <stop offset="0.136719" stop-color="#52B4CF" />
            <stop offset="0.5625" stop-color="#73E5FF" />
            <stop offset="0.816406" stop-color="#71E2FC" />
            <stop offset="1" stop-color="#5BD0EF" />
        </linearGradient>
        <radialGradient id="paint1_radial_63_2" cx="0" cy="0" r="1" gradientUnits="userSpaceOnUse"
            gradientTransform="translate(9.92969 6.51562) rotate(90) scale(0.507813 0.976563)">
            <stop stop-color="#8BFDFF" />
            <stop offset="1" stop-color="#8DFFFF" stop-opacity="0" />
        </radialGradient>
        <linearGradient id="paint2_linear_63_2" x1="15" y1="7.875" x2="17" y2="7.875"
            gradientUnits="userSpaceOnUse">
            <stop stop-color="#3F92A6" />
            <stop offset="0.136719" stop-color="#52B4CF" />
            <stop offset="0.5625" stop-color="#73E5FF" />
            <stop offset="0.816406" stop-color="#71E2FC" />
            <stop offset="1" stop-color="#5BD0EF" />
        </linearGradient>
        <radialGradient id="paint3_radial_63_2" cx="0" cy="0" r="1" gradientUnits="userSpaceOnUse"
            gradientTransform="translate(16.4297 6.51562) rotate(90) scale(0.507813 0.976563)">
            <stop stop-color="#8BFDFF" />
            <stop offset="1" stop-color="#8DFFFF" stop-opacity="0" />
        </radialGradient>
        <linearGradient id="paint4_linear_63_2" x1="21.5" y1="7.95642" x2="23.5" y2="7.95642"
            gradientUnits="userSpaceOnUse">
            <stop stop-color="#3F92A6" />
            <stop offset="0.136719" stop-color="#52B4CF" />
            <stop offset="0.5625" stop-color="#73E5FF" />
            <stop offset="0.816406" stop-color="#71E2FC" />
            <stop offset="1" stop-color="#5BD0EF" />
        </linearGradient>
        <radialGradient id="paint5_radial_63_2" cx="0" cy="0" r="1" gradientUnits="userSpaceOnUse"
            gradientTransform="translate(22.9297 6.59705) rotate(90) scale(0.507813 0.976563)">
            <stop stop-color="#8BFDFF" />
            <stop offset="1" stop-color="#8DFFFF" stop-opacity="0" />
        </radialGradient>
        <linearGradient id="paint6_linear_63_2" x1="2" y1="22.4976" x2="29.5625" y2="22.4976"
            gradientUnits="userSpaceOnUse">
            <stop offset="0.00558659" stop-color="#BB8960" />
            <stop offset="0.129252" stop-color="#DC9A6F" />
            <stop offset="0.543269" stop-color="#F6A377" />
            <stop offset="0.698413" stop-color="#F8A672" />
            <stop offset="0.858173" stop-color="#FBAA6C" />
            <stop offset="0.938776" stop-color="#E99952" />
            <stop offset="0.981859" stop-color="#CC894F" />
        </linearGradient>
        <radialGradient id="paint7_radial_63_2" cx="0" cy="0" r="1" gradientUnits="userSpaceOnUse"
            gradientTransform="translate(21.125 24.1875) rotate(90) scale(11.4375 6.67388)">
            <stop offset="0.00558659" stop-color="#FFBE8A" />
            <stop offset="0.981859" stop-color="#FFBB8A" stop-opacity="0" />
        </radialGradient>
        <linearGradient id="paint8_linear_63_2" x1="16" y1="24.8125" x2="16" y2="30.25"
            gradientUnits="userSpaceOnUse">
            <stop offset="0.738506" stop-color="#F7A378" stop-opacity="0" />
            <stop offset="0.862069" stop-color="#E4828A" />
            <stop offset="0.954023" stop-color="#BA5CA3" />
        </linearGradient>
        <linearGradient id="paint9_linear_63_2" x1="2.5625" y1="22.9855" x2="29.5625" y2="22.9855"
            gradientUnits="userSpaceOnUse">
            <stop offset="0.00558659" stop-color="#C7A88A" />
            <stop offset="0.0378251" stop-color="#D3B08F" />
            <stop offset="0.205674" stop-color="#FFD0B4" />
            <stop offset="0.510638" stop-color="#FFE3CA" />
            <stop offset="0.799054" stop-color="#FFF7CF" />
            <stop offset="0.93287" stop-color="#FFE5B6" />
            <stop offset="0.991898" stop-color="#E9CAA0" />
        </linearGradient>
        <linearGradient id="paint10_linear_63_2" x1="3.69792" y1="18.8125" x2="28.5239" y2="18.8125"
            gradientUnits="userSpaceOnUse">
            <stop stop-color="#BF6245" />
            <stop offset="0.388471" stop-color="#BD6555" />
            <stop offset="0.679198" stop-color="#A54D3B" />
            <stop offset="1" stop-color="#8E4229" />
        </linearGradient>
        <radialGradient id="paint11_radial_63_2" cx="0" cy="0" r="1" gradientUnits="userSpaceOnUse"
            gradientTransform="translate(26 11.5625) rotate(141.595) scale(21.9329 35.062)">
            <stop stop-color="#FFF2C2" />
            <stop offset="0.225954" stop-color="#FFF2C2" stop-opacity="0.644957" />
            <stop offset="0.636414" stop-color="#FFF1C1" stop-opacity="0" />
        </radialGradient>
        <radialGradient id="paint12_radial_63_2" cx="0" cy="0" r="1" gradientUnits="userSpaceOnUse"
            gradientTransform="translate(24.1875 11.0625) rotate(90) scale(1.34375 8.5625)">
            <stop stop-color="#FFFCC8" />
            <stop offset="1" stop-color="#FFF9C7" stop-opacity="0" />
        </radialGradient>
        <linearGradient id="paint13_linear_63_2" x1="30.01" y1="15.125" x2="27.4375" y2="15.125"
            gradientUnits="userSpaceOnUse">
            <stop stop-color="#EAD3A8" />
            <stop offset="0.4655" stop-color="#FEE6B8" />
            <stop offset="0.902818" stop-color="#FFF0C2" stop-opacity="0" />
        </linearGradient>
        <linearGradient id="paint14_linear_63_2" x1="16.005" y1="9.01562" x2="16.005" y2="19.0234"
            gradientUnits="userSpaceOnUse">
            <stop stop-color="#D8B38B" />
            <stop offset="0.0299084" stop-color="#F9C588" />
            <stop offset="0.160122" stop-color="#FFE59F" stop-opacity="0" />
        </linearGradient>
        <linearGradient id="paint15_linear_63_2" x1="2" y1="15.125" x2="8.0625" y2="15.125"
            gradientUnits="userSpaceOnUse">
            <stop stop-color="#A9967B" />
            <stop offset="0.412371" stop-color="#D2B79E" />
            <stop offset="1" stop-color="#DBBEA7" stop-opacity="0" />
        </linearGradient>
        <radialGradient id="paint16_radial_63_2" cx="0" cy="0" r="1" gradientUnits="userSpaceOnUse"
            gradientTransform="translate(16.005 18.3125) rotate(90) scale(10.4375 8.04767)">
            <stop stop-color="#FDDAC6" />
            <stop offset="1" stop-color="#FBD7C3" stop-opacity="0" />
        </radialGradient>
        <radialGradient id="paint17_radial_63_2" cx="0" cy="0" r="1" gradientUnits="userSpaceOnUse"
            gradientTransform="translate(23.25 19.0234) rotate(96.0287) scale(7.14105 5.50599)">
            <stop stop-color="#FFF4D0" />
            <stop offset="1" stop-color="#FFF3D1" stop-opacity="0" />
        </radialGradient>
        <linearGradient id="paint18_linear_63_2" x1="19.6875" y1="18.5625" x2="19.6875" y2="14.0195"
            gradientUnits="userSpaceOnUse">
            <stop stop-color="#D697AC" />
            <stop offset="0.357696" stop-color="#D697AC" stop-opacity="0" />
        </linearGradient>
        <radialGradient id="paint19_radial_63_2" cx="0" cy="0" r="1" gradientUnits="userSpaceOnUse"
            gradientTransform="translate(25.6212 11.8143) rotate(143.326) scale(20.7287 32.6077)">
            <stop stop-color="#FFF2C2" />
            <stop offset="0.225954" stop-color="#FFF2C2" stop-opacity="0.644957" />
            <stop offset="0.636414" stop-color="#FFF1C1" stop-opacity="0" />
        </radialGradient>
        <radialGradient id="paint20_radial_63_2" cx="0" cy="0" r="1" gradientUnits="userSpaceOnUse"
            gradientTransform="translate(23.868 11.3599) rotate(90) scale(1.22102 8.28241)">
            <stop stop-color="#FFFCC8" />
            <stop offset="1" stop-color="#FFF9C7" stop-opacity="0" />
        </radialGradient>
        <linearGradient id="paint21_linear_63_2" x1="29.5" y1="15.0514" x2="27.0116" y2="15.0514"
            gradientUnits="userSpaceOnUse">
            <stop stop-color="#EAD3A8" />
            <stop offset="0.4655" stop-color="#FEE6B8" />
            <stop offset="0.902818" stop-color="#FFF0C2" stop-opacity="0" />
        </linearGradient>
        <linearGradient id="paint22_linear_63_2" x1="15.9531" y1="9.50001" x2="15.9531" y2="18.5937"
            gradientUnits="userSpaceOnUse">
            <stop stop-color="#D8B38B" />
            <stop offset="0.0299084" stop-color="#F9C588" />
            <stop offset="0.160122" stop-color="#FFE59F" stop-opacity="0" />
        </linearGradient>
        <linearGradient id="paint23_linear_63_2" x1="2.40625" y1="15.0514" x2="8.27044" y2="15.0514"
            gradientUnits="userSpaceOnUse">
            <stop stop-color="#A9967B" />
            <stop offset="0.412371" stop-color="#D2B79E" />
            <stop offset="1" stop-color="#DBBEA7" stop-opacity="0" />
        </linearGradient>
        <radialGradient id="paint24_radial_63_2" cx="0" cy="0" r="1" gradientUnits="userSpaceOnUse"
            gradientTransform="translate(15.9531 17.9477) rotate(90) scale(9.48418 7.78442)">
            <stop stop-color="#FDDAC6" />
            <stop offset="1" stop-color="#FBD7C3" stop-opacity="0" />
        </radialGradient>
        <radialGradient id="paint25_radial_63_2" cx="0" cy="0" r="1" gradientUnits="userSpaceOnUse"
            gradientTransform="translate(22.9611 18.5937) rotate(96.4145) scale(6.49358 5.32198)">
            <stop stop-color="#FFF4D0" />
            <stop offset="1" stop-color="#FFF3D1" stop-opacity="0" />
        </radialGradient>
        <linearGradient id="paint26_linear_63_2" x1="20.9605" y1="14.9323" x2="20.313" y2="15.6001"
            gradientUnits="userSpaceOnUse">
            <stop stop-color="#FF79C8" />
            <stop offset="0.383961" stop-color="#FF79D8" />
            <stop offset="1" stop-color="#C557AB" />
        </linearGradient>
        <linearGradient id="paint27_linear_63_2" x1="21.1089" y1="14.8491" x2="20.4614" y2="15.5169"
            gradientUnits="userSpaceOnUse">
            <stop stop-color="#FF79C8" />
            <stop offset="0.383961" stop-color="#FF79D8" />
            <stop offset="1" stop-color="#C557AB" />
        </linearGradient>
        <radialGradient id="paint28_radial_63_2" cx="0" cy="0" r="1" gradientUnits="userSpaceOnUse"
            gradientTransform="translate(21.3561 15.457) rotate(127.091) scale(0.38746 0.386255)">
            <stop stop-color="#FF80E2" />
            <stop offset="1" stop-color="#FF80E2" stop-opacity="0" />
        </radialGradient>
        <linearGradient id="paint29_linear_63_2" x1="10.6446" y1="14.9864" x2="11.3476" y2="15.6594"
            gradientUnits="userSpaceOnUse">
            <stop stop-color="#D29440" />
            <stop offset="0.309854" stop-color="#E29B3E" />
            <stop offset="0.635489" stop-color="#EE9744" />
            <stop offset="1" stop-color="#F19542" />
        </linearGradient>
        <radialGradient id="paint30_radial_63_2" cx="0" cy="0" r="1" gradientUnits="userSpaceOnUse"
            gradientTransform="translate(11.61 14.8251) rotate(136.827) scale(2.00964 1.57209)">
            <stop offset="0.629362" stop-color="#CF794B" stop-opacity="0" />
            <stop offset="1" stop-color="#CF794B" />
        </radialGradient>
        <linearGradient id="paint31_linear_63_2" x1="10.894" y1="14.7863" x2="11.597" y2="15.4594"
            gradientUnits="userSpaceOnUse">
            <stop stop-color="#D29440" />
            <stop offset="0.309854" stop-color="#E29B3E" />
            <stop offset="0.635489" stop-color="#EE9744" />
            <stop offset="1" stop-color="#F19542" />
        </linearGradient>
        <radialGradient id="paint32_radial_63_2" cx="0" cy="0" r="1" gradientUnits="userSpaceOnUse"
            gradientTransform="translate(11.8594 14.625) rotate(136.827) scale(2.00964 1.57209)">
            <stop offset="0.629362" stop-color="#CF794B" stop-opacity="0" />
            <stop offset="1" stop-color="#CF794B" />
        </radialGradient>
        <radialGradient id="paint33_radial_63_2" cx="0" cy="0" r="1" gradientUnits="userSpaceOnUse"
            gradientTransform="translate(12.0156 14.4219) rotate(45) scale(0.994369 0.696058)">
            <stop stop-color="#FFC054" />
            <stop offset="1" stop-color="#FFBD42" stop-opacity="0" />
        </radialGradient>
        <linearGradient id="paint34_linear_63_2" x1="7.17497" y1="11.9031" x2="6.42497" y2="12.45"
            gradientUnits="userSpaceOnUse">
            <stop stop-color="#FF79C8" />
            <stop offset="0.383961" stop-color="#FF79D8" />
            <stop offset="1" stop-color="#C557AB" />
        </linearGradient>
        <linearGradient id="paint35_linear_63_2" x1="7.46873" y1="11.7813" x2="6.71873" y2="12.3281"
            gradientUnits="userSpaceOnUse">
            <stop stop-color="#FF79C8" />
            <stop offset="0.383961" stop-color="#FF79D8" />
            <stop offset="1" stop-color="#C557AB" />
        </linearGradient>
        <radialGradient id="paint36_radial_63_2" cx="0" cy="0" r="1" gradientUnits="userSpaceOnUse"
            gradientTransform="translate(7.60936 12.4219) rotate(136.637) scale(0.386857 0.385199)">
            <stop stop-color="#FF80E2" />
            <stop offset="1" stop-color="#FF80E2" stop-opacity="0" />
        </radialGradient>
        <linearGradient id="paint37_linear_63_2" x1="24.4014" y1="11.8605" x2="25.1983" y2="12.423"
            gradientUnits="userSpaceOnUse">
            <stop stop-color="#FBA947" />
            <stop offset="0.309854" stop-color="#FFB841" />
            <stop offset="0.635489" stop-color="#FFC656" />
            <stop offset="1" stop-color="#F3A740" />
        </linearGradient>
        <linearGradient id="paint38_linear_63_2" x1="24.5156" y1="11.7188" x2="25.3125" y2="12.2812"
            gradientUnits="userSpaceOnUse">
            <stop stop-color="#FBA947" />
            <stop offset="0.309854" stop-color="#FFB841" />
            <stop offset="0.635489" stop-color="#FFC656" />
            <stop offset="1" stop-color="#F3A740" />
        </linearGradient>
        <radialGradient id="paint39_radial_63_2" cx="0" cy="0" r="1" gradientUnits="userSpaceOnUse"
            gradientTransform="translate(24.125 13.125) rotate(-15.2551) scale(1.06891)">
            <stop offset="0.303141" stop-color="#D88043" />
            <stop offset="1" stop-color="#D98044" stop-opacity="0" />
        </radialGradient>
        <linearGradient id="paint40_linear_63_2" x1="16.4062" y1="11.6719" x2="15.7344" y2="12.3594"
            gradientUnits="userSpaceOnUse">
            <stop stop-color="#4FC3FF" />
            <stop offset="0.370938" stop-color="#45B2FF" />
            <stop offset="1" stop-color="#417EDD" />
        </linearGradient>
    </defs>
</svg>